<svg id="Layer_1" data-name="Layer 1" xmlns="http://www.w3.org/2000/svg" viewBox="0 0 300 120.02"><defs><style>.cls-1{fill:#f8333c;}.cls-2{fill:#20bf55;}</style></defs><title>teamodoro</title><path class="cls-1" d="M51.73,98.76a77.48,77.48,0,0,1-21.17-3A95.57,95.57,0,0,1,1.35,81.53a50,50,0,0,0,97.26.17C82.16,94.65,65.82,98.75,51.73,98.76Z"/><path class="cls-1" d="M151.73,98.76a77.48,77.48,0,0,1-21.17-3,95.57,95.57,0,0,1-29.22-14.21,50,50,0,0,0,97.26.17C182.16,94.65,165.82,98.75,151.73,98.76Z"/><path class="cls-1" d="M251.73,98.76a77.48,77.48,0,0,1-21.17-3,95.57,95.57,0,0,1-29.22-14.21,50,50,0,0,0,97.26.17C282.16,94.65,265.82,98.75,251.73,98.76Z"/><path class="cls-1" d="M50,20h0A50,50,0,0,0,0,70c0,1.42.07,2.82,0.19,4.21l1.43,1.22A89.51,89.51,0,0,0,32.11,91c24,6.76,46.26,1.53,66.27-15.55l1.43-1.22c0.12-1.39.19-2.79,0.19-4.2A50,50,0,0,0,50,20ZM30,65a5,5,0,1,1,5-5A5,5,0,0,1,30,65Zm40,0a5,5,0,1,1,5-5A5,5,0,0,1,70,65Z"/><path class="cls-1" d="M150,20h0a50,50,0,0,0-50,50c0,1.42.07,2.82,0.19,4.21l1.43,1.22A89.51,89.51,0,0,0,132.11,91c24,6.76,46.26,1.53,66.27-15.55l1.43-1.22c0.12-1.39.19-2.79,0.19-4.2A50,50,0,0,0,150,20ZM130,65a5,5,0,1,1,5-5A5,5,0,0,1,130,65Zm40,0a5,5,0,1,1,5-5A5,5,0,0,1,170,65Z"/><path class="cls-1" d="M250,20h0a50,50,0,0,0-50,50c0,1.42.07,2.82,0.19,4.21l1.43,1.22A89.51,89.51,0,0,0,232.11,91c24,6.76,46.26,1.53,66.27-15.55l1.43-1.22c0.12-1.39.19-2.79,0.19-4.2A50,50,0,0,0,250,20ZM230,65a5,5,0,1,1,5-5A5,5,0,0,1,230,65Zm40,0a5,5,0,1,1,5-5A5,5,0,0,1,270,65Z"/><path class="cls-2" d="M20,30L10,7.5,36.67,15,50,0,63.33,15,90,7.5,80,30s-20.25,7-30,7S20,30,20,30Z"/><path class="cls-2" d="M120,30L110,7.5,136.67,15,150,0l13.33,15L190,7.5,180,30s-20.25,7-30,7S120,30,120,30Z"/><path class="cls-2" d="M220,30L210,7.5,236.67,15,250,0l13.33,15L290,7.5,280,30s-20.25,7-30,7S220,30,220,30Z"/></svg>